{
    "asset" : {
        "generator" : "Khronos glTF Blender I/O v1.7.33",
        "version" : "2.0"
    },
    "scene" : 0,
    "scenes" : [
        {
            "name" : "Scene",
            "nodes" : [
                0,
                1
            ]
        }
    ],
    "nodes" : [
        {
            "mesh" : 0,
            "name" : "Satellite",
            "rotation" : [
                0.7071068286895752,
                0,
                0,
                0.7071067094802856
            ],
            "scale" : [
                0.11936284601688385,
                0.11936284601688385,
                0.11936284601688385
            ],
            "translation" : [
                0.06055521219968796,
                -1.8302016258239746,
                1.0540742874145508
            ]
        },
        {
            "mesh" : 1,
            "name" : "rocket",
            "rotation" : [
                -0.18093454837799072,
                -0.980222761631012,
                0.07746948301792145,
                -0.020603174343705177
            ],
            "scale" : [
                0.05200420692563057,
                0.05200420320034027,
                0.05200419947504997
            ],
            "translation" : [
                2.2816414833068848,
                2.8587772846221924,
                0.04516756534576416
            ]
        }
    ],
    "materials" : [
        {
            "doubleSided" : true,
            "name" : "rose",
            "pbrMetallicRoughness" : {
                "baseColorTexture" : {
                    "index" : 0
                },
                "metallicFactor" : 0,
                "roughnessFactor" : 0.5
            }
        },
        {
            "doubleSided" : true,
            "name" : "BaseColor1",
            "pbrMetallicRoughness" : {
                "baseColorTexture" : {
                    "index" : 1
                },
                "metallicFactor" : 0,
                "roughnessFactor" : 0.5
            }
        }
    ],
    "meshes" : [
        {
            "name" : "Satellite",
            "primitives" : [
                {
                    "attributes" : {
                        "POSITION" : 0,
                        "NORMAL" : 1,
                        "TEXCOORD_0" : 2
                    },
                    "indices" : 3,
                    "material" : 0
                }
            ]
        },
        {
            "name" : "rocket",
            "primitives" : [
                {
                    "attributes" : {
                        "POSITION" : 4,
                        "NORMAL" : 5,
                        "TEXCOORD_0" : 6
                    },
                    "indices" : 7,
                    "material" : 1
                }
            ]
        }
    ],
    "textures" : [
        {
            "sampler" : 0,
            "source" : 0
        },
        {
            "sampler" : 0,
            "source" : 0
        }
    ],
    "images" : [
        {
            "bufferView" : 4,
            "mimeType" : "image/png",
            "name" : "Satellite_BaseColor"
        }
    ],
    "accessors" : [
        {
            "bufferView" : 0,
            "componentType" : 5126,
            "count" : 923,
            "max" : [
                39.383697509765625,
                36.73098373413086,
                51.38702392578125
            ],
            "min" : [
                -40.01807403564453,
                -42.6442756652832,
                -28.467660903930664
            ],
            "type" : "VEC3"
        },
        {
            "bufferView" : 1,
            "componentType" : 5126,
            "count" : 923,
            "type" : "VEC3"
        },
        {
            "bufferView" : 2,
            "componentType" : 5126,
            "count" : 923,
            "type" : "VEC2"
        },
        {
            "bufferView" : 3,
            "componentType" : 5123,
            "count" : 3534,
            "type" : "SCALAR"
        },
        {
            "bufferView" : 5,
            "componentType" : 5126,
            "count" : 1418,
            "max" : [
                13.757176399230957,
                23.732440948486328,
                16.813480377197266
            ],
            "min" : [
                -13.70705795288086,
                -34.503173828125,
                -11.551406860351562
            ],
            "type" : "VEC3"
        },
        {
            "bufferView" : 6,
            "componentType" : 5126,
            "count" : 1418,
            "type" : "VEC3"
        },
        {
            "bufferView" : 7,
            "componentType" : 5126,
            "count" : 1418,
            "type" : "VEC2"
        },
        {
            "bufferView" : 8,
            "componentType" : 5123,
            "count" : 2100,
            "type" : "SCALAR"
        }
    ],
    "bufferViews" : [
        {
            "buffer" : 0,
            "byteLength" : 11076,
            "byteOffset" : 0
        },
        {
            "buffer" : 0,
            "byteLength" : 11076,
            "byteOffset" : 11076
        },
        {
            "buffer" : 0,
            "byteLength" : 7384,
            "byteOffset" : 22152
        },
        {
            "buffer" : 0,
            "byteLength" : 7068,
            "byteOffset" : 29536
        },
        {
            "buffer" : 0,
            "byteLength" : 31458,
            "byteOffset" : 36604
        },
        {
            "buffer" : 0,
            "byteLength" : 17016,
            "byteOffset" : 68064
        },
        {
            "buffer" : 0,
            "byteLength" : 17016,
            "byteOffset" : 85080
        },
        {
            "buffer" : 0,
            "byteLength" : 11344,
            "byteOffset" : 102096
        },
        {
            "buffer" : 0,
            "byteLength" : 4200,
            "byteOffset" : 113440
        }
    ],
    "samplers" : [
        {
            "magFilter" : 9729,
            "minFilter" : 9987
        }
    ],
    "buffers" : [
        {
            "byteLength" : 117640,
            "uri" : "data:application/octet-stream;base64,"
        }
    ]
}
