{
    "asset" : {
        "generator" : "Khronos glTF Blender I/O v1.7.33",
        "version" : "2.0"
    },
    "scene" : 0,
    "scenes" : [
        {
            "name" : "Scene",
            "nodes" : [
                0,
                1,
                2
            ]
        }
    ],
    "nodes" : [
        {
            "mesh" : 0,
            "name" : "Star",
            "rotation" : [
                0.5,
                0.4999999701976776,
                -0.5000000596046448,
                0.4999999403953552
            ],
            "scale" : [
                0.17951253056526184,
                0.17951253056526184,
                0.17951253056526184
            ],
            "translation" : [
                0,
                0,
                1.1171327829360962
            ]
        },
        {
            "mesh" : 1,
            "name" : "Star2",
            "rotation" : [
                0.5,
                0.4999999701976776,
                -0.5000000596046448,
                0.4999999403953552
            ],
            "scale" : [
                0.17951253056526184,
                0.17951253056526184,
                0.17951253056526184
            ]
        },
        {
            "mesh" : 2,
            "name" : "Star3",
            "rotation" : [
                0.5,
                0.4999999701976776,
                -0.5000000596046448,
                0.4999999403953552
            ],
            "scale" : [
                0.17951253056526184,
                0.17951253056526184,
                0.17951253056526184
            ],
            "translation" : [
                0,
                0,
                -1.134292483329773
            ]
        }
    ],
    "materials" : [
        {
            "doubleSided" : true,
            "name" : "Material.001",
            "pbrMetallicRoughness" : {
                "baseColorTexture" : {
                    "index" : 0
                },
                "metallicFactor" : 0,
                "roughnessFactor" : 0.5
            }
        }
    ],
    "meshes" : [
        {
            "name" : "Mesh",
            "primitives" : [
                {
                    "attributes" : {
                        "POSITION" : 0,
                        "NORMAL" : 1,
                        "TEXCOORD_0" : 2
                    },
                    "indices" : 3,
                    "material" : 0
                }
            ]
        },
        {
            "name" : "Mesh.001",
            "primitives" : [
                {
                    "attributes" : {
                        "POSITION" : 4,
                        "NORMAL" : 5,
                        "TEXCOORD_0" : 6
                    },
                    "indices" : 3,
                    "material" : 0
                }
            ]
        },
        {
            "name" : "Mesh.002",
            "primitives" : [
                {
                    "attributes" : {
                        "POSITION" : 7,
                        "NORMAL" : 8,
                        "TEXCOORD_0" : 9
                    },
                    "indices" : 3,
                    "material" : 0
                }
            ]
        }
    ],
    "textures" : [
        {
            "sampler" : 0,
            "source" : 0
        }
    ],
    "images" : [
        {
            "bufferView" : 4,
            "mimeType" : "image/png",
            "name" : "color"
        }
    ],
    "accessors" : [
        {
            "bufferView" : 0,
            "componentType" : 5126,
            "count" : 127,
            "max" : [
                1.9676151275634766,
                0.6622549295425415,
                1.0420562028884888
            ],
            "min" : [
                -1.9676151275634766,
                -1.1175870895385742e-08,
                -2.554330348968506
            ],
            "type" : "VEC3"
        },
        {
            "bufferView" : 1,
            "componentType" : 5126,
            "count" : 127,
            "type" : "VEC3"
        },
        {
            "bufferView" : 2,
            "componentType" : 5126,
            "count" : 127,
            "type" : "VEC2"
        },
        {
            "bufferView" : 3,
            "componentType" : 5123,
            "count" : 600,
            "type" : "SCALAR"
        },
        {
            "bufferView" : 5,
            "componentType" : 5126,
            "count" : 127,
            "max" : [
                1.9676151275634766,
                0.6622549295425415,
                1.0420562028884888
            ],
            "min" : [
                -1.9676151275634766,
                -1.1175870895385742e-08,
                -2.554330348968506
            ],
            "type" : "VEC3"
        },
        {
            "bufferView" : 6,
            "componentType" : 5126,
            "count" : 127,
            "type" : "VEC3"
        },
        {
            "bufferView" : 7,
            "componentType" : 5126,
            "count" : 127,
            "type" : "VEC2"
        },
        {
            "bufferView" : 8,
            "componentType" : 5126,
            "count" : 127,
            "max" : [
                1.9676151275634766,
                0.6622549295425415,
                1.0420562028884888
            ],
            "min" : [
                -1.9676151275634766,
                -1.1175870895385742e-08,
                -2.554330348968506
            ],
            "type" : "VEC3"
        },
        {
            "bufferView" : 9,
            "componentType" : 5126,
            "count" : 127,
            "type" : "VEC3"
        },
        {
            "bufferView" : 10,
            "componentType" : 5126,
            "count" : 127,
            "type" : "VEC2"
        }
    ],
    "bufferViews" : [
        {
            "buffer" : 0,
            "byteLength" : 1524,
            "byteOffset" : 0
        },
        {
            "buffer" : 0,
            "byteLength" : 1524,
            "byteOffset" : 1524
        },
        {
            "buffer" : 0,
            "byteLength" : 1016,
            "byteOffset" : 3048
        },
        {
            "buffer" : 0,
            "byteLength" : 1200,
            "byteOffset" : 4064
        },
        {
            "buffer" : 0,
            "byteLength" : 18513,
            "byteOffset" : 5264
        },
        {
            "buffer" : 0,
            "byteLength" : 1524,
            "byteOffset" : 23780
        },
        {
            "buffer" : 0,
            "byteLength" : 1524,
            "byteOffset" : 25304
        },
        {
            "buffer" : 0,
            "byteLength" : 1016,
            "byteOffset" : 26828
        },
        {
            "buffer" : 0,
            "byteLength" : 1524,
            "byteOffset" : 27844
        },
        {
            "buffer" : 0,
            "byteLength" : 1524,
            "byteOffset" : 29368
        },
        {
            "buffer" : 0,
            "byteLength" : 1016,
            "byteOffset" : 30892
        }
    ],
    "samplers" : [
        {
            "magFilter" : 9729,
            "minFilter" : 9987
        }
    ],
    "buffers" : [
        {
            "byteLength" : 31908,
            "uri" : "data:application/octet-stream;base64,"
        }
    ]
}
