{
    "asset" : {
        "generator" : "Khronos glTF Blender I/O v1.7.33",
        "version" : "2.0"
    },
    "scene" : 0,
    "scenes" : [
        {
            "name" : "Scene",
            "nodes" : [
                0,
                1,
                2,
                3,
                4,
                5
            ]
        }
    ],
    "nodes" : [
        {
            "mesh" : 0,
            "name" : "Star",
            "rotation" : [
                0.5000001192092896,
                -0.49999991059303284,
                0.5,
                0.5
            ],
            "scale" : [
                0.17951253056526184,
                0.17951253056526184,
                0.17951253056526184
            ],
            "translation" : [
                1.155314564704895,
                0.103401780128479,
                -1.026509165763855
            ]
        },
        {
            "mesh" : 1,
            "name" : "Star2",
            "rotation" : [
                0.5000001192092896,
                -0.49999991059303284,
                0.5,
                0.5
            ],
            "scale" : [
                0.17951253056526184,
                0.17951253056526184,
                0.17951253056526184
            ],
            "translation" : [
                1.1553146839141846,
                0.103401780128479,
                0.09062334150075912
            ]
        },
        {
            "mesh" : 2,
            "name" : "Star3",
            "rotation" : [
                0.5000001192092896,
                -0.49999991059303284,
                0.5,
                0.5
            ],
            "scale" : [
                0.17951253056526184,
                0.17951253056526184,
                0.17951253056526184
            ],
            "translation" : [
                1.1553146839141846,
                0.103401780128479,
                1.224915862083435
            ]
        },
        {
            "mesh" : 3,
            "name" : "rapper",
            "rotation" : [
                0.7071068286895752,
                -0.7071067690849304,
                0,
                5.338507946817117e-08
            ],
            "scale" : [
                0.21476195752620697,
                0.21476195752620697,
                0.220756396651268
            ],
            "translation" : [
                1.2206043004989624,
                0.8152180314064026,
                0.09062334150075912
            ]
        },
        {
            "mesh" : 4,
            "name" : "all",
            "rotation" : [
                0.7071068286895752,
                -0.7071067690849304,
                0,
                5.338507946817117e-08
            ],
            "scale" : [
                0.17704957723617554,
                0.17704957723617554,
                0.17704957723617554
            ],
            "translation" : [
                1.2206043004989624,
                0.836744487285614,
                -1.022650122642517
            ]
        },
        {
            "mesh" : 5,
            "name" : "cool",
            "rotation" : [
                0.7071068286895752,
                -0.7071067690849304,
                0,
                5.338507946817117e-08
            ],
            "scale" : [
                0.20973728597164154,
                0.20973728597164154,
                0.21956782042980194
            ],
            "translation" : [
                1.220604419708252,
                0.8152180314064026,
                1.2313450574874878
            ]
        }
    ],
    "materials" : [
        {
            "doubleSided" : true,
            "name" : "Material.001",
            "pbrMetallicRoughness" : {
                "baseColorTexture" : {
                    "index" : 0
                },
                "metallicFactor" : 0,
                "roughnessFactor" : 0.5
            }
        },
        {
            "doubleSided" : true,
            "name" : "Material.002",
            "pbrMetallicRoughness" : {
                "baseColorTexture" : {
                    "index" : 1
                },
                "metallicFactor" : 0,
                "roughnessFactor" : 0.5
            }
        },
        {
            "doubleSided" : true,
            "name" : "Material",
            "pbrMetallicRoughness" : {
                "baseColorTexture" : {
                    "index" : 2
                },
                "metallicFactor" : 0,
                "roughnessFactor" : 0.5
            }
        },
        {
            "doubleSided" : true,
            "name" : "Material.003",
            "pbrMetallicRoughness" : {
                "baseColorTexture" : {
                    "index" : 3
                },
                "metallicFactor" : 0,
                "roughnessFactor" : 0.5
            }
        }
    ],
    "meshes" : [
        {
            "name" : "Mesh",
            "primitives" : [
                {
                    "attributes" : {
                        "POSITION" : 0,
                        "NORMAL" : 1,
                        "TEXCOORD_0" : 2
                    },
                    "indices" : 3,
                    "material" : 0
                }
            ]
        },
        {
            "name" : "Mesh.001",
            "primitives" : [
                {
                    "attributes" : {
                        "POSITION" : 4,
                        "NORMAL" : 5,
                        "TEXCOORD_0" : 6
                    },
                    "indices" : 3,
                    "material" : 0
                }
            ]
        },
        {
            "name" : "Mesh.002",
            "primitives" : [
                {
                    "attributes" : {
                        "POSITION" : 7,
                        "NORMAL" : 8,
                        "TEXCOORD_0" : 9
                    },
                    "indices" : 3,
                    "material" : 0
                }
            ]
        },
        {
            "name" : "Plane",
            "primitives" : [
                {
                    "attributes" : {
                        "POSITION" : 10,
                        "NORMAL" : 11,
                        "TEXCOORD_0" : 12
                    },
                    "indices" : 13,
                    "material" : 1
                }
            ]
        },
        {
            "name" : "Plane.001",
            "primitives" : [
                {
                    "attributes" : {
                        "POSITION" : 14,
                        "NORMAL" : 15,
                        "TEXCOORD_0" : 16
                    },
                    "indices" : 13,
                    "material" : 2
                }
            ]
        },
        {
            "name" : "Plane.003",
            "primitives" : [
                {
                    "attributes" : {
                        "POSITION" : 17,
                        "NORMAL" : 18,
                        "TEXCOORD_0" : 19
                    },
                    "indices" : 13,
                    "material" : 3
                }
            ]
        }
    ],
    "textures" : [
        {
            "sampler" : 0,
            "source" : 0
        },
        {
            "sampler" : 0,
            "source" : 1
        },
        {
            "sampler" : 0,
            "source" : 2
        },
        {
            "sampler" : 0,
            "source" : 3
        }
    ],
    "images" : [
        {
            "bufferView" : 4,
            "mimeType" : "image/png",
            "name" : "color"
        },
        {
            "bufferView" : 15,
            "mimeType" : "image/png",
            "name" : "rapper"
        },
        {
            "bufferView" : 19,
            "mimeType" : "image/png",
            "name" : "All"
        },
        {
            "bufferView" : 23,
            "mimeType" : "image/png",
            "name" : "cool"
        }
    ],
    "accessors" : [
        {
            "bufferView" : 0,
            "componentType" : 5126,
            "count" : 127,
            "max" : [
                1.9676151275634766,
                0.298549085855484,
                1.6180704832077026
            ],
            "min" : [
                -1.9676151275634766,
                -0.3637058436870575,
                -1.978316068649292
            ],
            "type" : "VEC3"
        },
        {
            "bufferView" : 1,
            "componentType" : 5126,
            "count" : 127,
            "type" : "VEC3"
        },
        {
            "bufferView" : 2,
            "componentType" : 5126,
            "count" : 127,
            "type" : "VEC2"
        },
        {
            "bufferView" : 3,
            "componentType" : 5123,
            "count" : 600,
            "type" : "SCALAR"
        },
        {
            "bufferView" : 5,
            "componentType" : 5126,
            "count" : 127,
            "max" : [
                1.9676151275634766,
                0.298549085855484,
                1.6180704832077026
            ],
            "min" : [
                -1.9676151275634766,
                -0.3637058436870575,
                -1.978316068649292
            ],
            "type" : "VEC3"
        },
        {
            "bufferView" : 6,
            "componentType" : 5126,
            "count" : 127,
            "type" : "VEC3"
        },
        {
            "bufferView" : 7,
            "componentType" : 5126,
            "count" : 127,
            "type" : "VEC2"
        },
        {
            "bufferView" : 8,
            "componentType" : 5126,
            "count" : 127,
            "max" : [
                1.9676151275634766,
                0.298549085855484,
                1.6180704832077026
            ],
            "min" : [
                -1.9676151275634766,
                -0.3637058436870575,
                -1.978316068649292
            ],
            "type" : "VEC3"
        },
        {
            "bufferView" : 9,
            "componentType" : 5126,
            "count" : 127,
            "type" : "VEC3"
        },
        {
            "bufferView" : 10,
            "componentType" : 5126,
            "count" : 127,
            "type" : "VEC2"
        },
        {
            "bufferView" : 11,
            "componentType" : 5126,
            "count" : 4,
            "max" : [
                0.6332457065582275,
                1.1071635697135207e-07,
                2.0997281074523926
            ],
            "min" : [
                -0.6332457065582275,
                -1.1071635697135207e-07,
                -2.0997281074523926
            ],
            "type" : "VEC3"
        },
        {
            "bufferView" : 12,
            "componentType" : 5126,
            "count" : 4,
            "type" : "VEC3"
        },
        {
            "bufferView" : 13,
            "componentType" : 5126,
            "count" : 4,
            "type" : "VEC2"
        },
        {
            "bufferView" : 14,
            "componentType" : 5123,
            "count" : 6,
            "type" : "SCALAR"
        },
        {
            "bufferView" : 16,
            "componentType" : 5126,
            "count" : 4,
            "max" : [
                1,
                0,
                1
            ],
            "min" : [
                -1,
                0,
                -1
            ],
            "type" : "VEC3"
        },
        {
            "bufferView" : 17,
            "componentType" : 5126,
            "count" : 4,
            "type" : "VEC3"
        },
        {
            "bufferView" : 18,
            "componentType" : 5126,
            "count" : 4,
            "type" : "VEC2"
        },
        {
            "bufferView" : 20,
            "componentType" : 5126,
            "count" : 4,
            "max" : [
                0.6332457065582275,
                1.1071635697135207e-07,
                2.0997281074523926
            ],
            "min" : [
                -0.6332457065582275,
                -1.1071635697135207e-07,
                -2.0997281074523926
            ],
            "type" : "VEC3"
        },
        {
            "bufferView" : 21,
            "componentType" : 5126,
            "count" : 4,
            "type" : "VEC3"
        },
        {
            "bufferView" : 22,
            "componentType" : 5126,
            "count" : 4,
            "type" : "VEC2"
        }
    ],
    "bufferViews" : [
        {
            "buffer" : 0,
            "byteLength" : 1524,
            "byteOffset" : 0
        },
        {
            "buffer" : 0,
            "byteLength" : 1524,
            "byteOffset" : 1524
        },
        {
            "buffer" : 0,
            "byteLength" : 1016,
            "byteOffset" : 3048
        },
        {
            "buffer" : 0,
            "byteLength" : 1200,
            "byteOffset" : 4064
        },
        {
            "buffer" : 0,
            "byteLength" : 18513,
            "byteOffset" : 5264
        },
        {
            "buffer" : 0,
            "byteLength" : 1524,
            "byteOffset" : 23780
        },
        {
            "buffer" : 0,
            "byteLength" : 1524,
            "byteOffset" : 25304
        },
        {
            "buffer" : 0,
            "byteLength" : 1016,
            "byteOffset" : 26828
        },
        {
            "buffer" : 0,
            "byteLength" : 1524,
            "byteOffset" : 27844
        },
        {
            "buffer" : 0,
            "byteLength" : 1524,
            "byteOffset" : 29368
        },
        {
            "buffer" : 0,
            "byteLength" : 1016,
            "byteOffset" : 30892
        },
        {
            "buffer" : 0,
            "byteLength" : 48,
            "byteOffset" : 31908
        },
        {
            "buffer" : 0,
            "byteLength" : 48,
            "byteOffset" : 31956
        },
        {
            "buffer" : 0,
            "byteLength" : 32,
            "byteOffset" : 32004
        },
        {
            "buffer" : 0,
            "byteLength" : 12,
            "byteOffset" : 32036
        },
        {
            "buffer" : 0,
            "byteLength" : 5575,
            "byteOffset" : 32048
        },
        {
            "buffer" : 0,
            "byteLength" : 48,
            "byteOffset" : 37624
        },
        {
            "buffer" : 0,
            "byteLength" : 48,
            "byteOffset" : 37672
        },
        {
            "buffer" : 0,
            "byteLength" : 32,
            "byteOffset" : 37720
        },
        {
            "buffer" : 0,
            "byteLength" : 1830,
            "byteOffset" : 37752
        },
        {
            "buffer" : 0,
            "byteLength" : 48,
            "byteOffset" : 39584
        },
        {
            "buffer" : 0,
            "byteLength" : 48,
            "byteOffset" : 39632
        },
        {
            "buffer" : 0,
            "byteLength" : 32,
            "byteOffset" : 39680
        },
        {
            "buffer" : 0,
            "byteLength" : 4689,
            "byteOffset" : 39712
        }
    ],
    "samplers" : [
        {
            "magFilter" : 9729,
            "minFilter" : 9987
        }
    ],
    "buffers" : [
        {
            "byteLength" : 44404,
            "uri" : "data:application/octet-stream;base64,"
        }
    ]
}
