<svg id="Layer_1" data-name="Layer 1" xmlns="http://www.w3.org/2000/svg" viewBox="0 0 322.62 90.42"><path d="M89,221.19h10v55.35h27V285H89Z" transform="translate(-89.01 -216)"/><path d="M131.89,261.21c0-15.85,10.65-25,22.43-25s22.43,9.18,22.43,25-10.65,24.94-22.43,24.94S131.89,277.05,131.89,261.21Zm34.64,0c0-10-4.68-16.81-12.21-16.81s-12.13,6.76-12.13,16.81,4.68,16.8,12.13,16.8S166.53,271.34,166.53,261.21Z" transform="translate(-89.01 -216)"/><path d="M184.37,272.38c0-10.22,8.66-15.5,28.49-17.67-.08-5.54-2.07-10.39-9.09-10.39-5,0-9.7,2.25-13.77,4.85l-3.72-6.76c4.93-3.12,11.6-6.23,19.22-6.23,11.87,0,17.32,7.53,17.32,20.18V285h-8.14l-.78-5.45h-.34c-4.33,3.72-9.44,6.58-15.16,6.58C190.17,286.15,184.37,280.78,184.37,272.38Zm28.49.34V261c-14.11,1.65-18.88,5.29-18.88,10.65,0,4.68,3.21,6.59,7.45,6.59S209,276.28,212.86,272.72Z" transform="translate(-89.01 -216)"/><path d="M233.74,261.21c0-15.42,9.78-25,20.44-25,5.45,0,8.92,2.07,12.82,5.37l-.44-7.89V216h10v69h-8.14l-.78-5.37h-.34c-3.55,3.64-8.49,6.5-13.86,6.5C241.45,286.15,233.74,277.05,233.74,261.21Zm32.82,10.91v-23.3a15,15,0,0,0-10.48-4.33c-6.67,0-12,6.32-12,16.63,0,10.82,4.25,16.8,11.7,16.8C259.72,277.92,263.1,276.1,266.56,272.12Z" transform="translate(-89.01 -216)"/><path d="M290.29,222.49c0-3.55,2.51-5.89,6.15-5.89s6.24,2.34,6.24,5.89-2.6,6-6.24,6S290.29,226.13,290.29,222.49Zm1.22,14.9h10V285h-10Z" transform="translate(-89.01 -216)"/><path d="M316.36,237.39h8.14l.78,6.58h.26c4.42-4.24,9.27-7.79,15.77-7.79,10.13,0,14.63,6.75,14.63,18.88v30H346V256.27c0-8.23-2.42-11.52-8.05-11.52-4.42,0-7.45,2.25-11.61,6.5V285h-10Z" transform="translate(-89.01 -216)"/><path d="M366.94,293.86c0-4,2.51-7.71,6.93-10.4V283a8.74,8.74,0,0,1-4.33-7.88c0-3.73,2.68-6.93,5.37-8.83V266a16.15,16.15,0,0,1-6.32-12.73c0-10.74,8.57-17.06,18.44-17.06a19.92,19.92,0,0,1,6.93,1.21h16.89v7.45h-9.09a12.86,12.86,0,0,1,3.12,8.74C404.88,264,397,270,387,270a16.55,16.55,0,0,1-6.66-1.47c-1.56,1.39-2.6,2.69-2.6,5,0,2.86,1.9,4.68,8,4.68h8.74c11.26,0,17.15,3.46,17.15,11.61,0,9.18-9.7,16.63-24.94,16.63C375.25,306.42,366.94,302.17,366.94,293.86ZM402,291.34c0-4-3.12-5.19-8.92-5.19h-7.19a30.49,30.49,0,0,1-6.41-.69c-2.86,2.07-4.07,4.5-4.07,6.92,0,4.68,4.85,7.45,12.73,7.45C396.47,299.83,402,295.76,402,291.34Zm-6-38.1c0-6.32-4-10.05-9-10.05s-9,3.64-9,10.05,4.07,10.3,9,10.3S396,259.65,396,253.24Z" transform="translate(-89.01 -216)"/></svg>